<svg xmlns="http://www.w3.org/2000/svg" width="144" height="192" viewBox="0 0 144 192">
  <path d="M72 7 C36 7 12 38 12 82 V140 L31 132 L46 151 L63 137 L77 153 L93 135 L112 149 L122 133 L140 141 V82 C140 39 110 7 72 7Z" fill="#6c526c" stroke="#d88c9d" stroke-width="7" stroke-linejoin="round"/>
  <path d="M35 71 L61 78 L48 94Z" fill="#ffb0aa"/><path d="M109 71 L83 78 L96 94Z" fill="#ffb0aa"/>
  <ellipse cx="49" cy="80" rx="7" ry="10" fill="#230e20"/><ellipse cx="95" cy="80" rx="7" ry="10" fill="#230e20"/>
  <path d="M56 111 L64 104 L72 112 L80 104 L88 111" fill="none" stroke="#f5c9cf" stroke-width="5" stroke-linecap="round" stroke-linejoin="round"/>
  <path d="M20 50 Q72 21 124 50" fill="none" stroke="#f0c4d7" stroke-opacity=".4" stroke-width="3"/>
</svg>
